<?xml version="1.0" encoding="utf-8"?>
<!-- Generator: Adobe Illustrator 18.1.1, SVG Export Plug-In . SVG Version: 6.00 Build 0)  -->
<svg version="1.1" id="Layer_1" xmlns="http://www.w3.org/2000/svg" xmlns:xlink="http://www.w3.org/1999/xlink" x="0px" y="0px"
     viewBox="0 297 610 200" enable-background="new 0 297 610 200" xml:space="preserve">
<title>London Skyline</title>
<g>
    <title>Layer 1</title>
    <g id="layer12">
        <rect id="rect2693" x="1" y="436.5" width="609" height="59.8"/>
        <rect id="rect3848" x="1" y="414" width="609" height="31.4"/>
    </g>
    <g id="layer11">
        <g id="g3228">
        </g>
        <g id="g3909">
            <path id="path3094" stroke="#FFFFFF" stroke-width="0.1296" d="M606,429.1l0-14.1c0,0,1.2-0.2,1.9-0.9c0-0.1,0-37.4,0-37.4
                l-12.8,0c0,0,0,37.3,0,37.4c0.6,0.8,1.9,0.9,1.9,0.9v13.9C599,430.8,603.9,430.3,606,429.1L606,429.1z"/>
            <path id="path3096" stroke="#FFFFFF" stroke-width="0.1296" d="M598.9,376.7l0-19.6h5.1l0,19.6L598.9,376.7z"/>
            <path id="path3098" stroke="#FFFFFF" stroke-width="0.1296" d="M595.6,373.3v1.4h11.7v-1.4L595.6,373.3L595.6,373.3z"/>
            <path id="path3100" stroke="#FFFFFF" stroke-width="0.1296" d="M595.7,369.4v1.4h11.7v-1.4L595.7,369.4L595.7,369.4z"/>
            <path id="path3102" stroke="#FFFFFF" stroke-width="0.1296" d="M595.6,365.4v1.4h11.7v-1.4L595.6,365.4L595.6,365.4z"/>
            <path id="path3104" stroke="#FFFFFF" stroke-width="0.1296" d="M595.7,361.4v1.4h3.3h8.4v-1.4L595.7,361.4z"/>
            <path id="path3106" stroke="#FFFFFF" stroke-width="0.1296" d="M595.6,357.4v1.4h11.7v-1.4L595.6,357.4z"/>
            <path id="path3108" stroke="#FFFFFF" stroke-width="0.1296" d="M604.1,357.1c0,0,3.2-0.1,3.8-0.5c0-1,0-1,0-1s-0.2-0.2-0.8-0.3c-0.1,0,0-0.2,0-0.2h0.5l0.2-0.2v-4h0.3c0,0,0.2-0.1,0.3-0.3c0-0.2,0-5.2,0-5.2s-0.3-0.3-0.7-0.4c0,0,0-3.6,0-3.6c-0.4-0.7-2.2-0.9-3.4-1.1l0-0.3c0,0,1.1-0.1,1.2-0.3c0,0,0.4-0.3,0.4-0.5c0,0,0-2.4,0-2.4c-0.1-0.2-1.2-0.7-2.2-0.7l-4.7,0c-1,0.1-2.1,0.5-2.2,0.7c0,0,0,2.4,0,2.4c0,0.1,0.4,0.5,0.4,0.5c0.2,0.2,1.2,0.3,1.2,0.3l0,0.3c-1.2,0.2-3,0.4-3.4,1.1c0,0,0,3.5,0,3.6c-0.4,0.1-0.7,0.4-0.7,0.4s0,5,0,5.2c0.1,0.2,0.3,0.3,0.3,0.3h0.3v4l0.2,0.2h0.5c0,0,0,0.3,0,0.2c-0.6,0.1-0.8,0.3-0.8,0.3s0,0,0,1c0.6,0.4,3.8,0.5,3.8,0.5L604.1,357.1L604.1,357.1z"/>
            <path id="path3110" stroke="#FFFFFF" stroke-width="0.1296" d="M596,373.3V373h-0.7l-0.1,0.4l-0.8,0l-0.2-0.8v-0.8l0.1-0.5l0.8,0l0.2,0.3v1.1l0.9,0l0,0.4L596,373.3L596,373.3z"/>
            <path id="path3112" stroke="#FFFFFF" stroke-width="0.1296" d="M595.7,369.3V369H595l-0.1,0.4l-0.8,0l-0.2-0.8v-0.8l0.1-0.5l0.8,0l0.2,0.3v1.1l0.9,0l0,0.4L595.7,369.3L595.7,369.3z"/>
            <path id="path3114" stroke="#FFFFFF" stroke-width="0.1296" d="M595.9,365.4v-0.3h-0.7l-0.1,0.4l-0.8,0l-0.2-0.8V364l0.1-0.5l0.8,0l0.2,0.3v1.1l0.9,0l0,0.4L595.9,365.4L595.9,365.4z"/>
            <path id="path3116" stroke="#FFFFFF" stroke-width="0.1296" d="M597.1,361.4v-0.3h-0.7l-0.1,0.4l-0.8,0l-0.2-0.8V360l0.1-0.5l0.8,0l0.2,0.3v1.1l0.9,0l0,0.4L597.1,361.4L597.1,361.4z"/>
            <path id="path3118" stroke="#FFFFFF" stroke-width="0.1296" d="M606.5,367.3h-1c0,0-1.2,0.8,0,2c0,0,1.3,0.1,1.3,0.1S607.9,368.1,606.5,367.3L606.5,367.3z"/>
            <path id="path3120" stroke="#FFFFFF" stroke-width="0.1296" d="M606.6,371.4h-1c0,0-1.2,0.8,0,2c0,0,1.3,0.1,1.3,0.1
                S607.9,372.2,606.6,371.4L606.6,371.4z"/>
            <path id="path3122" stroke="#FFFFFF" stroke-width="0.1166" d="M606.6,363.5h-0.8c0,0-0.9,0.9,0,2c0,0,1,0.1,1,0.1
                S607.7,364.3,606.6,363.5z"/>
            <path id="path3124" stroke="#FFFFFF" stroke-width="0.1104" d="M605.4,360.2h-0.7c0,0-0.8,0.9,0,2c0,0,0.9,0.1,0.9,0.1
                S606.4,361,605.4,360.2z"/>
            <path id="path3126" stroke="#FFFFFF" stroke-width="0.1218" d="M597.8,363.8h-0.9c0,0-1,0.8,0,2c0,0,1.1,0.1,1.1,0.1
                S598.9,364.6,597.8,363.8L597.8,363.8z"/>
            <path id="path3128" stroke="#FFFFFF" stroke-width="0.134" d="M598.1,367.6h-1c0,0-1.2,0.9,0,2.2c0,0,1.3,0.1,1.3,0.1
                S599.4,368.5,598.1,367.6L598.1,367.6z"/>
            <path id="path3130" stroke="#FFFFFF" stroke-width="0.1263" d="M597.9,371.5h-0.9c0,0-1.1,0.8,0,2c0,0,1.2,0.1,1.2,0.1
                S599.1,372.3,597.9,371.5z"/>
            <path id="path3132" stroke="#FFFFFF" stroke-width="0.1429" d="M599.6,325.9l3.7,0l-0.1,1.4h-3.6L599.6,325.9L599.6,325.9z"/>
            <path id="path3134" stroke="#FFFFFF" stroke-width="0.1869" d="M603.1,328.7H600l0,1.4h3L603.1,328.7L603.1,328.7z"/>
            <path id="path3136" stroke="#FFFFFF" stroke-width="0.2013" d="M600.2,331.6h2.6v1.5h-2.6L600.2,331.6z"/>
            <path id="path3138" stroke="#FFFFFF" stroke-width="0.2" d="M600.6,334.3h1.9v0.8h-1.9L600.6,334.3L600.6,334.3z"/>
            <path id="path3140" fill="none" stroke="#FFFFFF" stroke-width="0.324" d="M600.4,335.9l-0.9-10l3.8,0.1l-0.9,9.9L600.4,335.9z"
                />
            <path id="path3142" fill="none" stroke="#FFFFFF" stroke-width="0.311" d="M601.6,325.8V319"/>
        </g>
    </g>
    <g id="layer10">
        <path id="path3090" stroke="#FFFFFF" stroke-width="0.1635" d="M588.6,423.6c-0.2,0.6-0.9,1.4-1,1.5c-5,4-18.3,4.7-25.6-0.5
            c-0.3-0.2-1.6-1.8-1.6-1.9c-1.3-11.1-9.1-79.2,12.7-105.6c-0.2-0.2,2.3-0.2,2.3-0.2C598.5,340.2,589.7,423.5,588.6,423.6
            C588.6,423.6,588.6,423.6,588.6,423.6z"/>
    </g>
    <g id="layer9">
        <path id="path3293" stroke="#FFFFFF" stroke-width="1.530600e-02" d="M467.8,423.7v-2.3l0.3-0.3l0-7.5c0,0-0.4-0.5-0.3-0.5
            c0-0.1,0-0.6,0-0.6h0.4v-7l-0.3-0.2V405l0.3,0l-0.3-0.4v-0.4l-0.5-0.3v-0.3l0.4-0.3v-0.4l0.3-0.2V401h-0.3l-0.1-0.3v-0.2l0.2-0.2
            h1.4v1.2h0.3v0.2h0.6v-0.2h0.8v0.3h0.4v0.2h0.4v0.2l0.3,0.1v-0.9l0.2-0.4l0.2-0.2h1.8v0.2h2.1v-0.3h2v0.3h5.2v-0.3h2v0.3h5.2v-0.3
            h1.9v0.3h5.1v-0.3h2.3v0.3h1.8v-0.3h-0.3v-0.5h-0.2v-0.4h0.6v-3.2h-0.4v-0.9h0.2v-6.4v-1.3l-0.4-0.4v-0.4l0.6-0.2v-1l-0.2,0v-0.3
            l0.7-0.4l1.1-0.3h1.1v-2.9l-0.4-0.3V381h0.4v-0.2h0.2l0-0.1h-0.1l-0.2-0.2v-0.2l0.5-0.3v-0.6h0.2c0.4-3,2.1-8.7,7.4-10.6v-0.4h0.2
            v-0.3c0,0-0.4,0-0.5-0.2c0-0.1,0-0.3,0.2-0.4l0.2,0v-0.9h0.1v-0.5h0.2v0.4h0.3v-0.7h-0.2v-0.4h0.4v-3.3l-0.4-0.3v-0.3h0.4v-1
            l0.4,0.4v0.5h0.3v-1.9h-0.4v-0.3h0.2v-1c0,0,0.5-0.8,0.9-0.8v-0.3l-0.3-0.1v-0.1h0.3V356h0.2c0,0-0.2-0.1-0.2-0.3l0-0.3
            c0,0,0.1-0.1,0.2-0.2c0.1,0,0.1,0,0.1,0v-0.2c-0.9-0.5-0.2-1.3,0-1.2l0-1.6l0.2-0.9l0.2,0.9l0,1.6c0.2-0.1,0.9,0.8,0,1.2v0.2
            c0,0,0,0,0.1,0c0.1,0,0.2,0.2,0.2,0.2l0,0.3c0,0.1-0.2,0.3-0.2,0.3h0.2v0.8h0.3v0.1l-0.3,0.1v0.3c0.3,0,0.9,0.8,0.9,0.8v1h0.2v0.3
            h-0.4v1.9h0.3v-0.5l0.4-0.4v1h0.4v0.3l-0.4,0.3v3.3h0.4v0.4h-0.2v0.7h0.3v-0.4h0.2v0.5h0.1v0.9l0.2,0c0.3,0.1,0.2,0.3,0.2,0.4
            c-0.1,0.3-0.5,0.2-0.5,0.2v0.3h0.2v0.4c5.3,1.9,7.1,7.6,7.4,10.6h0.2v0.6l0.5,0.3v0.2l-0.2,0.2H526l0,0.1h0.2v0.2h0.4v0.5
            l-0.4,0.3v2.9h1.1l1.1,0.3l0.7,0.4v0.3l-0.2,0v1l0.6,0.2v0.4l-0.4,0.4v1.3v6.4h0.2v0.9h-0.4v3.2h0.6v0.4h-0.2v0.5h-0.3v0.2h2.6
            v-0.4h2.3v0.4h5.1v-0.3h2v0.4h5.3v-0.4h2v0.3h4.7v-0.3h2.5v0.3h10.1v-1.9l-0.3-0.2l0-1.2l0.3-0.1V397h-0.3v-1.5h0.9v-0.6l0.4,0
            l-0.3-0.4l-0.1-0.2l0-0.4l0.3,0v-0.5h0.1v-4.1l-0.2-0.1l-0.4-0.2v-0.6h0.6v-0.9h0.2v-0.6h0.3h0.2v-0.8h-0.2v-0.3h0.2v-0.3h0.3v0.3
            h0.2v0.3h-0.2v0.4h0.2l0.3-0.4v-1.4h-0.2v-0.4h0.3v-0.5h0.2v-0.3H568v-0.3h0.2v-0.3h0.2l0-0.1h0.2l0-0.6l0.3-0.4v-0.8l0.5-0.8h0.1
            c0,0,0-0.5,0.3-0.5c0,0,0-0.3,0-0.3c-0.2,0-0.3-0.4,0-0.5c0,0,0-0.3,0-0.3c-0.3-0.1-0.3-0.6,0.1-0.7c0.5,0,0.4,0.6,0.1,0.7
            c0,0,0,0.3,0,0.3c0.3,0.1,0.2,0.5,0,0.5c0,0,0,0.3,0,0.3c0.2,0,0.3,0.5,0.3,0.5h0.1l0.5,0.8v0.8l0.3,0.4l0,0.6h0.2l0,0.1h0.2v0.3
            h0.2v0.3h-0.2v0.3h0.2v0.5h0.3v0.4h-0.2v1.4l0.3,0.4h0.2v-0.4h-0.2v-0.3h0.2v-0.3h0.3v0.3h0.2v0.3h-0.2v0.8h0.2h0.3v0.6h0.2v0.9
            h0.6v0.6l-0.4,0.2l-0.2,0.1v4.1h0.1v0.5l0.3,0l0,0.4l-0.1,0.2l-0.3,0.4l0.4,0v0.6h0.9v1.5h-0.3v0.5l0.3,0.1l0,1.2l-0.3,0.2v1.5
            h1.2v-0.3c0,0-0.2-0.2-0.2-0.3c0,0,0-0.6,0-0.6s0-0.2,0.2-0.2c0,0,0-1.3,0-1.3l0.1-0.1c0,0-0.1-0.3,0.2-0.3c0,0,0.2,0,0.2,0.3
            c0,0,0.2,0.1,0.2,0.1v0.3H576v0.1h0.2l0,1.2H576v1.1v1.9l0.3,0.2v1h-0.1v0.6H576v5.5h0.5v0.9h0.3v0.6h-0.2v0.3h-0.5v0.9h0.2v0.6
            h-0.2v0.6H576v7.1h0.3v0.3h0.2v0.2h0.2v2.4L467.8,423.7L467.8,423.7z"/>
    </g>
    <g id="layer8">
        <g id="g3281">
            <g id="g3293">
                <path id="path3295" fill="#FFFFFF" d="M457.1,380.1c0,0.4-0.3,0.6-0.8,0.6c-0.4,0-0.8-0.3-0.8-0.6c0-0.4,0.3-0.6,0.8-0.6
                    C456.8,379.4,457.1,379.7,457.1,380.1z"/>
                <path id="path3297" fill="#FFFFFF" stroke="#FFFFFF" stroke-width="2.4423" d="M456.2,379.6l0-2l0.1,2L456.2,379.6L456.2,379.6z
                    "/>
                <path id="path3299" fill="#FFFFFF" d="M456.6,380.5c-0.1,0.3,0.1,2.5,0.2,2.5c2.6,0.7,3,3,3,3l0.7,0l0,1.3h-0.7l0,9.9l-6.6,0
                    l0-9.8h-0.7l0-1.4l0.7,0c0,0,0.2-2.4,2.8-2.9c0,0,0.3-2.2,0.3-2.5L456.6,380.5L456.6,380.5z"/>
            </g>
            <g id="g3301">
                <path id="path3303" stroke="#FFFFFF" stroke-width="0.8839" d="M446.2,376.5c0,0.4-0.3,0.6-0.8,0.6s-0.8-0.3-0.8-0.6
                    c0-0.4,0.3-0.6,0.8-0.6S446.2,376.1,446.2,376.5z"/>
                <path id="path3305" stroke="#FFFFFF" stroke-width="2.4423" d="M445.4,376l0-2l0.1,2L445.4,376L445.4,376z"/>
                <path id="path3307" stroke="#FFFFFF" stroke-width="0.8276" d="M445.7,376.9c-0.1,0.3,0.1,2.5,0.2,2.5c2.6,0.7,3,3,3,3l0.7,0
                    l0,1.3h-0.7l0,9.9l-6.6,0l0-9.8h-0.7l0-1.4l0.7,0c0,0,0.2-2.4,2.8-2.9c0,0,0.3-2.2,0.3-2.5L445.7,376.9L445.7,376.9z"/>
            </g>
            <path id="path3310" stroke="#FFFFFF" stroke-width="0.8839" d="M486.5,376.4c0,0.4-0.3,0.6-0.8,0.6c-0.4,0-0.8-0.3-0.8-0.6
                s0.3-0.6,0.8-0.6C486.2,375.8,486.5,376.1,486.5,376.4z"/>
            <path id="path3312" stroke="#FFFFFF" stroke-width="0.2088" d="M485.7,376l0-2l0.1,2L485.7,376z"/>
            <g id="g3314">
                <path id="path3316" fill="#FFFFFF" d="M477,379.9c0,0.3-0.3,0.6-0.7,0.6c-0.4,0-0.7-0.3-0.7-0.6s0.3-0.6,0.7-0.6
                    C476.7,379.3,477,379.5,477,379.9z"/>
                <path id="path3318" fill="#FFFFFF" stroke="#FFFFFF" stroke-width="2.3223" d="M476.2,379.4l0-1.9l0.1,1.9L476.2,379.4
                    L476.2,379.4z"/>
                <path id="path3321" fill="#FFFFFF" d="M476.5,380.3c-0.1,0.3,0.1,2.3,0.2,2.3c2.5,0.6,2.9,2.7,2.9,2.7l0.7,0l0,1.2h-0.7l0,9.1
                    l-6.4,0l0-9h-0.7l0-1.3l0.7,0c0,0,0.2-2.2,2.7-2.7c0,0,0.3-2,0.3-2.3L476.5,380.3L476.5,380.3z"/>
            </g>
            <path id="path3323" stroke="#FFFFFF" stroke-width="7.077100e-02" d="M486,377c-0.1,0.3,0.1,2.5,0.2,2.5c2.6,0.7,3,3,3,3l0.7,0
                l0,1.3h-0.7l0,9.9l-6.6,0l0-9.8h-0.7l0-1.4l0.7,0c0,0,0.2-2.4,2.8-2.9c0,0,0.3-2.2,0.3-2.5L486,377L486,377z"/>
            <path id="path3325" stroke="#FFFFFF" stroke-width="6.956000e-02" d="M495.8,394c0,0,0-1.4,0-1.4c-0.2-0.1-1.2-0.2-1.2-0.2v1.8
                l-1.1-0.1l0-1.7c-0.7-0.1-1-0.1-1.6-0.2l0,1.6l-1.2-0.1v-1.5c-0.9,0-1.5,0-1.5,0l0,1.5l-1.7,0H486V392h-2.4l0,1.6l-1.5,0V392
                l-2.3,0l0,1.6l-1.5,0V392h-2.4l0,1.6l-1.5,0V392H472l0,1.6l-1.5,0V392h-2.4l0,1.6l-1.5,0V392h-2.4l0,1.6l-1.5,0v-1.6h-2.4l0,1.6
                l-1.5,0v-1.6h-2.4l0,1.6l-1.5,0v-1.6h-2.4v1.6h-1.5v-1.6h-9l0.1,26.5c-0.1,0,43.9-0.1,44-0.1c0,0,9-0.1,9.5-1.2
                C495.8,416.8,495.8,394,495.8,394L495.8,394z"/>
            <path id="path3056" stroke="#FFFFFF" stroke-width="0.24" d="M439.3,423.7l0-2.9c0,0-0.6-0.1-0.5-0.3c0-0.2,0.4-0.1,0.4-0.3
                c0.3-0.8-0.1-1.4-1-1.5c-0.9,0-1.3,0.6-1,1.5c0.1,0.3,0.4,0.1,0.4,0.3c0,0.2-0.5,0.3-0.5,0.3l0,2.7v0.2L439.3,423.7L439.3,423.7z
                "/>
        </g>
    </g>
    <g id="layer6">
        <path id="path2235" d="M320.7,416.7c-2.2,2.3-20.4,3.9-24.8,0.3c0,0-0.9-2.5-0.9-2.5s-1.3-0.2-1.4-0.5c0,0.1-0.2-1.8-0.2-1.8
            s-1.6-0.1-1.8-0.3c0,0-0.2-3.2-0.2-3.2s-1.1-0.1-1.3-0.3c0,0,0-1.9,0-1.9c0,0-0.9,0.1-1.2-0.2c0,0-0.1-2.6-0.1-2.6
            s-0.7,0.1-0.9-0.2c0-0.1,0-2.5,0-2.5c-0.8-0.1-0.7-0.4-0.7-0.4l0.1-2.3c-0.2,0-0.6-0.3-0.6-0.5l0.1-2.3c-0.4-0.2-0.4-0.6-0.4-0.6
            l0.2-2.1c0,0,0,0-0.2-0.1c-0.1-0.1,0.2-1.8,0.3-1.8c0.4-0.5,0,0.1-0.2-0.6c0-0.2,0.3-2.3,0.8-2.5c0.2-0.1,3.3-0.6,4.9-0.6
            c0,0,3.9,0,3.9,0s6.5,0.7,9.4,2.2c-0.2-0.2,4.7,2.5,5.4,3.1c0,0,5.8,4.5,7.5,8c-0.1-0.1,2.2,3.9,2.6,5.5c0-0.1,0.7,1.9,1.1,3.8
            c0.2,1.1,0.3,1.8,0.4,2.5c0.1,0.1-1.5,0.9-1.7,0.8l0,2.5v0.2L320.7,416.7L320.7,416.7z"/>
    </g>
    <g id="layer5">
        <g id="g3843">
            <path id="path3146" d="M118,421.7c0,0-17,0.6-17.7,0.1c-0.1,0-1.6,1.4-2.2,2.7c0-0.1-0.8-0.1-0.8-0.1s0.6-1.7,0.5-2.2
                c0,0.1-2.9-0.6-3.7-0.7c0.1,0-0.8,0.1-1.1,2.6c0-0.1-0.7,0-0.7,0s0-2.5-0.8-2.8c0,0-10.3-1.5-13.8-2.3c0,0-2.4,1-3.2,2
                c-0.4-0.2-0.4-0.2-0.4-0.2s2-2.2,1.9-2.9c0,0,0.1-0.7-1.1-0.5c0,0-2.9,2-3.3,2.5l-0.3-0.2c0,0,1.8-3,1.1-3.7c0,0-1.7-2.1-2.7-1.9
                c0.1,0-4.3,1.4-4.3,1.4l0-0.3c0,0,2-1.2,2-1.3c0,0-2.2,0.5-2.2,0.7c0-0.2,0-0.2,0-0.2l3.6-3c0.3-0.3,4.9-3.6,11.6-6.7
                c0.7-0.3,9.4-5.2,26.3-5.3c-0.1,0,18.9-1.1,35.3,12c0,0,1.3,1.4,2.3,2.3c0,0.1-0.2,0.1-0.2,0.1s-2.9-1.4-3.4-0.5
                c0,0-0.7,1.5-0.1,2.7c0.6,1.2,1.8,2.9,1.8,2.9l-0.2,0.1c0,0-2.6-2.9-3.8-2.5c0.1,0-1.3,0.2,1.9,3.4c0,0-0.2,0.2-0.2,0.2
                s-2.9-2.3-4-2.2c-0.9,0.2-10.1,2.7-10.1,2.7s-0.8,1.7-0.3,3c-0.1,0-0.5,0.2-0.5,0.2s-1.2-2.5-1.6-2.5c-0.9,0.1-3.4,0.7-3.4,0.7
                s0.4,1.8,0.8,2.3c-0.5,0-0.5,0-0.5,0S118.4,421.7,118,421.7L118,421.7z"/>
            <path id="path3148" d="M80.5,404.4l-3.6-13.3l-0.1-2.6L78,391l3.9,12.6L80.5,404.4L80.5,404.4z"/>
            <path id="path3150" d="M78.8,393.1l-0.3-3.6l1.3,2.8l3,11.3l-0.9,0.3L78.8,393.1L78.8,393.1z"/>
            <path id="path3152" d="M85,402.3l-2.4-11.8l-0.2-2.7l1,2.6l3,11.5L85,402.3L85,402.3z"/>
            <path id="path3154" d="M90.8,401l-1.1-7.5l0-3.4l1.1,3.3L92,401L90.8,401L90.8,401z"/>
            <path id="path3156" d="M93.3,400.3l-1-9.8l0.1-2.8l0.8,3.1l1.2,9.4L93.3,400.3L93.3,400.3z"/>
            <path id="path3158" d="M103.6,399.5l0.1-9.3l0.4-2.7l0.5,2.6l0.1,9.4L103.6,399.5L103.6,399.5z"/>
            <path id="path3160" d="M106.9,399.1l0.2-5.1l0.8-3.8l0.6,4l-0.1,5L106.9,399.1L106.9,399.1z"/>
            <path id="path3162" d="M114.2,399.6l1-9l0.7-2.8l0.2,3.2l-1,8.8L114.2,399.6L114.2,399.6z"/>
            <path id="path3164" d="M122,401.1l1.7-7.7l1.3-3.5l-0.3,3.9l-1.4,7.8L122,401.1L122,401.1z"/>
            <path id="path3166" d="M124.1,401.7l2.2-10.6l0.2-3l-1.1,3.1l-2.3,10.3L124.1,401.7L124.1,401.7z"/>
            <path id="path3168" d="M128.9,403.4l3.4-11.2l1.3-2.7l-0.3,3.3l-3,11.3L128.9,403.4L128.9,403.4z"/>
        </g>
    </g>
    <path id="path2236" stroke="#FFFFFF" d="M353.6,378.5l0.5,0l0.4-2.5l0.2-0.9l-0.3,0l0-0.2l0.4,0l0.3-1.8l0.1-1l0.1,1l0.3,1.8l0.3,0
        l0,0.2l-0.3,0l0.8,5.1l0.1,35.5l0,0l-11,0v-35.5l0.8-5.2l-0.3,0l0-0.2l0.3,0l0.3-1.4l0.2-1.2l0.1,1.2l0.3,1.3l0.3,0l0,0.1l-0.2,0
        l0.3,1.1l0.8,2.4l0.5,0l2.3-8.2L353.6,378.5L353.6,378.5z"/>
    <path id="path7339" stroke="#FFFFFF" d="M421.7,378.5h0.7l0.4-2.5l0.2-0.9l-0.3,0l0-0.2l0.4,0l0.3-1.8l0.1-1l0.1,1l0.3,1.8l0.3,0
        l0,0.2l-0.3,0l0.8,5.1l0.1,35.5l0,0l-11,0v-35.5l0.8-5.2l-0.3,0l0-0.2l0.3,0l0.3-1.4l0.2-1.2l0.1,1.2l0.3,1.3l0.3,0l0,0.1l-0.2,0
        l0.3,1.1l0.7,2.6l0.6,0l2.3-8.3L421.7,378.5L421.7,378.5z"/>
    <path id="path7342" stroke="#FFFFFF" d="M413.8,386.1l-26.1,0v-0.5c0,0,0.2-1-0.5-1c0,0-0.6-0.1-0.5,0.8l-1.3,0l0-0.8
        c0,0,0.9-1-0.3-1.4c-0.6,0.2-0.6,0.8-0.2,1.3c0.2,0.2,0.1,0.6,0.1,0.9l-1.3,0c0,0,0-0.8-0.3-0.8c0,0-0.8-0.2-0.6,1.2h-26.3v3.9
        h58.7v-3.7L413.8,386.1L413.8,386.1z"/>
    <g id="g13443">
        <path id="path8345" fill="none" stroke="#FFFFFF" stroke-width="3.3" d="M346.4,390c-16.8,16.8-25.2,24.5-46.7,25.2
            c0,0-16.8,1-26.2-6.2c0,0,0,0,0,0"/>
        <path id="path8336" fill="none" stroke="#FFFFFF" stroke-width="3.3" d="M346.2,389.1c0,0-23.9,22.2-46.5,24.8
            c0,0-11.7,1-26.5-6.4"/>
        <path id="path11254" fill="none" stroke="#FFFFFF" d="M340,394.4l-1.8,3.8"/>
        <path id="path11256" fill="none" stroke="#FFFFFF" d="M337.3,396.1l3.6-0.2"/>
        <path id="path11258" fill="none" stroke="#FFFFFF" d="M337.8,396.2l-1.3,3.3l0,0l0.1-0.1"/>
        <path id="path11262" fill="none" stroke="#FFFFFF" d="M331,401.2l3.8-0.3"/>
        <path id="path11264" fill="none" stroke="#FFFFFF" d="M330.2,401.6l-3.5,5.6"/>
        <path id="path11266" fill="none" stroke="#FFFFFF" d="M326,404.3l5.1,0.3"/>
        <path id="path11268" fill="none" stroke="#FFFFFF" d="M325.4,404.5l-3.4,5.7"/>
        <path id="path11270" fill="none" stroke="#FFFFFF" d="M321.6,406.5l4.5,1.7"/>
        <path id="path11272" fill="none" stroke="#FFFFFF" d="M320.9,407l-3.6,5.3"/>
        <path id="path11274" fill="none" stroke="#FFFFFF" d="M317.1,408.7l4.5,2"/>
        <path id="path11276" fill="none" stroke="#FFFFFF" d="M316.6,409.1l-3.9,4.6"/>
        <path id="path11278" fill="none" stroke="#FFFFFF" d="M312.6,410.7l4.1,1.8"/>
        <path id="path11280" fill="none" stroke="#FFFFFF" d="M311.2,411.3l-3,3.3"/>
        <path id="path11282" fill="none" stroke="#FFFFFF" d="M307.9,412.3l3.5,1.5"/>
        <path id="path11284" fill="none" stroke="#FFFFFF" d="M306.6,412.8c-0.1,0-2.8,2.2-2.8,2.2"/>
        <path id="path11286" fill="none" stroke="#FFFFFF" d="M303.6,413.3l3,1.4"/>
        <path id="path11288" fill="none" stroke="#FFFFFF" d="M302.7,413.7l-2.2,1.6"/>
        <path id="path11290" fill="none" stroke="#FFFFFF" stroke-width="2" d="M300.2,414l3.1,1.3"/>
        <path id="path12267" fill="none" stroke="#FFFFFF" stroke-width="2" d="M339.7,396.5v21.3"/>
        <path id="path12269" fill="none" stroke="#FFFFFF" stroke-width="2" d="M335.2,397.9V418"/>
        <path id="path12271" fill="none" stroke="#FFFFFF" stroke-width="2" d="M330.6,400.7v17.2"/>
        <path id="path12273" fill="none" stroke="#FFFFFF" stroke-width="2" d="M325.9,403.9v14"/>
        <path id="path12275" fill="none" stroke="#FFFFFF" stroke-width="2" d="M321.2,406.5v11.4"/>
        <path id="path12277" fill="none" stroke="#FFFFFF" stroke-width="2" d="M316.8,408.4v9.4l0.1-0.1l0,0"/>
        <path id="path12279" fill="none" stroke="#FFFFFF" stroke-width="2" d="M312.2,410.4v7.5"/>
        <path id="path12281" fill="none" stroke="#FFFFFF" stroke-width="2" d="M307.8,411.9v6"/>
        <path id="path12283" fill="none" stroke="#FFFFFF" stroke-width="2" d="M303.1,413.2v4.8"/>
        <path id="path12376" fill="none" stroke="#FFFFFF" d="M335.4,398l3.4-0.2"/>
        <path id="path12378" fill="none" stroke="#FFFFFF" d="M334.1,398.8l-2.8,5.1"/>
        <path id="path7591" fill="none" stroke="#FFFFFF" stroke-width="2" d="M294.4,417.8v-4.2"/>
        <path id="path7593" fill="none" stroke="#FFFFFF" stroke-width="2" d="M289.5,417.8V413"/>
        <path id="path7595" fill="none" stroke="#FFFFFF" stroke-width="2" d="M285,417.7v-5.7"/>
        <path id="path7597" fill="none" stroke="#FFFFFF" stroke-width="2" d="M280.4,417.5v-7h0.1"/>
        <path id="path7599" fill="none" stroke="#FFFFFF" stroke-width="2" d="M276,417.3v-8.6"/>
        <path id="path8572" fill="none" stroke="#FFFFFF" d="M294.5,414.8l3.6-0.8"/>
        <path id="path8574" fill="none" stroke="#FFFFFF" d="M294.6,413.5l3.8,1.7"/>
        <path id="path8576" fill="none" stroke="#FFFFFF" d="M289.7,414.5l5-0.7"/>
        <path id="path8578" fill="none" stroke="#FFFFFF" d="M289.8,413l4.7,2.3v0l0,0"/>
        <path id="path8580" fill="none" stroke="#FFFFFF" d="M285,413.8l4.4-0.7"/>
        <path id="path8582" fill="none" stroke="#FFFFFF" d="M285.1,412l4.2,2.7"/>
        <path id="path8584" fill="none" stroke="#FFFFFF" d="M280.5,412.7l4.4-0.9"/>
        <path id="path8586" fill="none" stroke="#FFFFFF" d="M280.5,410.5l4.4,3.3l0,0"/>
        <path id="path8588" fill="none" stroke="#FFFFFF" d="M276,410.9l4.3-0.4"/>
        <path id="path8590" fill="none" stroke="#FFFFFF" d="M276.2,408.7l4.1,3.8"/>
    </g>
    <g id="g12056">
        <g id="g11860">
            <path id="path11862" fill="none" stroke="#FFFFFF" stroke-width="3.3" d="M423.7,390.1c16.8,16.8,25.2,24.5,46.7,25.2
                c0,0,16.8,1,26.2-6.2"/>
            <path id="path11864" fill="none" stroke="#FFFFFF" stroke-width="3.3" d="M423.9,389.2c0,0,23.9,22.2,46.5,24.8
                c0,0,11.7,1,26.5-6.4"/>
            <path id="path11866" fill="none" stroke="#FFFFFF" d="M430.1,394.5l1.8,3.8"/>
            <path id="path11868" fill="none" stroke="#FFFFFF" d="M432.8,396.2l-3.6-0.2"/>
            <path id="path11870" fill="none" stroke="#FFFFFF" d="M432.3,396.3l1.3,3.3l0,0l-0.1-0.1"/>
            <path id="path11872" fill="none" stroke="#FFFFFF" d="M439.1,401.3l-3.8-0.3"/>
            <path id="path11874" fill="none" stroke="#FFFFFF" d="M439.9,401.7l3.5,5.6"/>
            <path id="path11876" fill="none" stroke="#FFFFFF" d="M444.1,404.4l-5.1,0.3"/>
            <path id="path11878" fill="none" stroke="#FFFFFF" d="M444.7,404.6l3.4,5.7"/>
            <path id="path11880" fill="none" stroke="#FFFFFF" d="M448.5,406.6l-4.5,1.7"/>
            <path id="path11882" fill="none" stroke="#FFFFFF" d="M449.3,407.1l3.6,5.3"/>
            <path id="path11884" fill="none" stroke="#FFFFFF" d="M453.1,408.8l-4.5,2"/>
            <path id="path11886" fill="none" stroke="#FFFFFF" d="M453.5,409.2l3.9,4.6"/>
            <path id="path11888" fill="none" stroke="#FFFFFF" d="M457.5,410.8l-4.1,1.8"/>
            <path id="path11890" fill="none" stroke="#FFFFFF" d="M458.9,411.4l3,3.3"/>
            <path id="path11892" fill="none" stroke="#FFFFFF" d="M462.3,412.4l-3.5,1.5"/>
            <path id="path11894" fill="none" stroke="#FFFFFF" d="M463.5,412.9c0.1,0,2.8,2.2,2.8,2.2"/>
            <path id="path11896" fill="none" stroke="#FFFFFF" d="M466.5,413.4l-3,1.4"/>
            <path id="path11898" fill="none" stroke="#FFFFFF" d="M467.4,413.8l2.2,1.6"/>
            <path id="path11900" fill="none" stroke="#FFFFFF" stroke-width="2" d="M469.9,414.1l-3.1,1.3"/>
            <path id="path11902" fill="none" stroke="#FFFFFF" stroke-width="2" d="M430.4,396.6v21.3"/>
            <path id="path11904" fill="none" stroke="#FFFFFF" stroke-width="2" d="M435,398v20.1"/>
            <path id="path11906" fill="none" stroke="#FFFFFF" stroke-width="2" d="M439.5,400.8V418"/>
            <path id="path11908" fill="none" stroke="#FFFFFF" stroke-width="2" d="M444.2,404v14"/>
            <path id="path11910" fill="none" stroke="#FFFFFF" stroke-width="2" d="M448.9,406.6v11.4"/>
            <path id="path11912" fill="none" stroke="#FFFFFF" stroke-width="2" d="M453.3,408.5v9.4l-0.1-0.1l0,0"/>
            <path id="path11914" fill="none" stroke="#FFFFFF" stroke-width="2" d="M457.9,410.5v7.5"/>
            <path id="path11916" fill="none" stroke="#FFFFFF" stroke-width="2" d="M462.3,412v6"/>
            <path id="path11918" fill="none" stroke="#FFFFFF" stroke-width="2" d="M467,413.3v4.8"/>
            <path id="path11920" fill="none" stroke="#FFFFFF" d="M434.7,398.1l-3.4-0.2"/>
            <path id="path11922" fill="none" stroke="#FFFFFF" d="M436,398.9l2.8,5.1"/>
            <path id="path11924" fill="none" stroke="#FFFFFF" stroke-width="2" d="M475.7,417.9v-4.2"/>
            <path id="path11926" fill="none" stroke="#FFFFFF" stroke-width="2" d="M480.6,417.9v-4.8"/>
            <path id="path11928" fill="none" stroke="#FFFFFF" stroke-width="2" d="M485.1,417.8V412"/>
            <path id="path11930" fill="none" stroke="#FFFFFF" stroke-width="2" d="M489.7,417.6v-7h-0.1"/>
            <path id="path11932" fill="none" stroke="#FFFFFF" stroke-width="2" d="M494.1,417.4v-8.6"/>
            <path id="path11934" fill="none" stroke="#FFFFFF" d="M475.6,414.9l-3.6-0.8"/>
            <path id="path11936" fill="none" stroke="#FFFFFF" d="M475.6,413.6l-3.8,1.7"/>
            <path id="path11938" fill="none" stroke="#FFFFFF" d="M480.4,414.6l-5-0.7"/>
            <path id="path11940" fill="none" stroke="#FFFFFF" d="M480.3,413.1l-4.7,2.3v0l0,0"/>
            <path id="path11942" fill="none" stroke="#FFFFFF" d="M485.1,413.9l-4.4-0.7"/>
            <path id="path11944" fill="none" stroke="#FFFFFF" d="M485,412.1l-4.2,2.7"/>
            <path id="path11946" fill="none" stroke="#FFFFFF" d="M489.6,412.8l-4.4-0.9"/>
            <path id="path11948" fill="none" stroke="#FFFFFF" d="M489.6,410.6l-4.4,3.3l0,0"/>
            <path id="path11950" fill="none" stroke="#FFFFFF" d="M494.1,411l-4.3-0.4"/>
            <path id="path11952" fill="none" stroke="#FFFFFF" d="M494,408.8l-4.1,3.8"/>
        </g>
        <path id="path11954" fill="none" stroke="#FFFFFF" stroke-width="2.1378" d="M503.3,407.6l15.3,9.2"/>
        <path id="path11956" fill="none" stroke="#FFFFFF" stroke-width="2.1378" d="M502.6,408.1l14.5,9"/>
    </g>
    <path id="path2241" stroke="#FFFFFF" d="M300.2,418.2l0-2.9c0,0-0.6-0.1-0.5-0.3c0-0.2,0.4-0.1,0.5-0.3c0.3-0.8-0.2-1.5-1-1.5
        c-0.9,0-1.3,0.6-1,1.5c0.1,0.3,0.4,0.1,0.5,0.3c0,0.2-0.5,0.3-0.5,0.3l0,2.7v0.2L300.2,418.2L300.2,418.2z"/>
    <path id="path2249" stroke="#FFFFFF" d="M472,418.2l0-2.9c0,0-0.6-0.1-0.5-0.3c0-0.2,0.4-0.1,0.5-0.3c0.3-0.8-0.2-1.5-1-1.5
        c-0.9,0-1.3,0.6-1,1.5c0.1,0.3,0.4,0.1,0.5,0.3s-0.5,0.3-0.5,0.3l0,2.7v0.2L472,418.2L472,418.2z"/>
    <path id="path10593" stroke="#FFFFFF" stroke-width="0.9041" d="M266.3,418.3l76.2,0l0-0.4l0,0c0,0-67.8-0.1-76.2-0.1L266.3,418.3
        L266.3,418.3z"/>
    <path id="path2253" stroke="#FFFFFF" stroke-width="0.9041" d="M266.3,415.6h76.3v1.4h-76.3L266.3,415.6L266.3,415.6z"/>
    <g id="g2268">
        <path id="path2264" stroke="#FFFFFF" d="M427.8,415.7h136.1v1.5H427.6L427.8,415.7L427.8,415.7z"/>
        <path id="path2266" stroke="#FFFFFF" d="M563.7,417.9c0,0-136.4-0.1-136.4-0.1l0,0.5h136.4L563.7,417.9L563.7,417.9z"/>
    </g>
    <path id="path2276" stroke="#FFFFFF" d="M410.5,415.7h17.8v10.1h-17.9L410.5,415.7z"/>
    <path id="path2280" stroke="#FFFFFF" d="M342.2,415.7H360v10.1h-17.9L342.2,415.7z"/>
    <g id="g4241">
        <path id="path2291" stroke="#FFFFFF" d="M358.5,416.5l22.9-11.4l0.7,1.4l-22.9,11.4L358.5,416.5z"/>
        <path id="path2296" fill="none" stroke="#FFFFFF" stroke-width="3" d="M358.6,423.3c0,0,13.9-11.5,23.2-16.2l0.6-0.3"/>
        <path id="path3270" fill="none" stroke="#FFFFFF" stroke-width="2.9" d="M361.1,421.2l-2.2-3.9l4.2,1.6l-1.4-2.8l4,0.9l-1.3-2.7
            l3.7,0.9l-1.1-2.3l3.5,0.7l-0.9-1.9l2.9,0.4l-0.8-1.4l2.6,0.3l-0.7-1.2l2.3,0.1l-0.5-1l2.1,0.1l-0.8-1.5l0,0"/>
    </g>
    <g id="g4247">
        <path id="path4249" stroke="#FFFFFF" d="M411.7,416.3l-22.9-11.4l-0.7,1.4l22.9,11.4L411.7,416.3z"/>
        <path id="path4251" fill="none" stroke="#FFFFFF" stroke-width="3" d="M411.6,423.1c0,0-13.9-11.5-23.2-16.2l-0.6-0.3"/>
        <path id="path4253" fill="none" stroke="#FFFFFF" stroke-width="2.9" d="M409.1,421l2.2-3.9l-4.2,1.6l1.4-2.8l-4,0.9l1.3-2.7
            l-3.7,0.9l1.1-2.3l-3.5,0.7l0.9-1.9l-2.9,0.4l0.8-1.4l-2.6,0.3l0.7-1.2l-2.3,0.1l0.5-1l-2.1,0.1l0.8-1.5l0,0"/>
    </g>
    <path id="path12772" stroke="#FFFFFF" stroke-width="0.2055" d="M269.8,395.6c0.1,0,0.1-0.1,0.1-0.2l0,0c0-0.1-0.1-0.2-0.2-0.2
        s-0.2,0.1-0.2,0.2c0,0.1,0.1,0.2,0.2,0.2l0,1.4l-0.4,0v0.3h0.1c0,0,0,0.4,0,0.7c-1,2.6-1.9,2.9-1.9,2.9l-1.1,0l-0.5,1l0,3.6l-0.6,0
        l0,0.8h0.6v8.4l-0.7,1.7l0,8.6l0,0l9.2,0l0-8.7l-0.7-1.7v-8.3h0.6l0-0.8l-0.6,0l0-3.6l-0.5-1l-1,0c0,0-0.8-0.5-1.9-3
        c0-0.5,0-0.7,0-0.7l0,0l0.1,0l0-0.3h-0.4L269.8,395.6L269.8,395.6z"/>
    <path id="path12108" stroke="#FFFFFF" stroke-width="0.2055" d="M500.1,395.6c0.1,0,0.1-0.1,0.1-0.2l0,0c0-0.1-0.1-0.2-0.2-0.2
        c-0.1,0-0.2,0.1-0.2,0.2c0,0.1,0.1,0.2,0.2,0.2l0,1.4l-0.4,0v0.3h0.1c0,0,0,0.4,0,0.7c-1,2.6-1.9,2.9-1.9,2.9l-1.1,0l-0.5,1l0,3.6
        l-0.6,0l0,0.8h0.6v8.4l-0.7,1.7l0,8.6l0,0l9.2,0l0-8.7l-0.7-1.7v-8.3h0.6l0-0.8l-0.6,0l0-3.6l-0.5-1l-1,0c0,0-0.8-0.5-1.9-3
        c0-0.5,0-0.7,0-0.7l0,0l0.1,0l0-0.3h-0.4L500.1,395.6L500.1,395.6z"/>
    <g id="layer3">
        <g id="g3766">

            <animateTransform attributeType="xml"
                    attributeName="transform"
                    type="rotate"
                    from="0 44.80 380.5"
                    to="360 44.80 380.5"
                    dur="120s"
                    repeatCount="indefinite"/>
            <path id="path2836" d="M44.2,341.5c0,1.3-1,2.3-2.3,2.3s-2.3-1-2.3-2.3c0-1.3,1-2.3,2.3-2.3S44.2,340.2,44.2,341.5z"/>
            <path id="path2838" d="M35.4,343.2c0,1.3-1,2.3-2.3,2.3s-2.3-1-2.3-2.3c0-1.3,1-2.3,2.3-2.3S35.4,341.9,35.4,343.2z"/>
            <path id="path2840" d="M28.3,345.9c0,1.3-1,2.3-2.3,2.3c-1.3,0-2.3-1-2.3-2.3c0-1.3,1-2.3,2.3-2.3
                C27.3,343.6,28.3,344.7,28.3,345.9z"/>
            <path id="path2842" d="M21.7,350.1c0,1.3-1,2.3-2.3,2.3c-1.3,0-2.3-1-2.3-2.3c0-1.3,1-2.3,2.3-2.3
                C20.7,347.8,21.7,348.9,21.7,350.1z"/>
            <path id="path2844" d="M16.3,355.4c0,1.3-1,2.3-2.3,2.3c-1.3,0-2.3-1-2.3-2.3c0-1.3,1-2.3,2.3-2.3
                C15.3,353.1,16.3,354.1,16.3,355.4z"/>
            <path id="path2846" d="M11.9,361.6c0,1.3-1,2.3-2.3,2.3c-1.3,0-2.3-1-2.3-2.3c0-1.3,1-2.3,2.3-2.3
                C10.9,359.3,11.9,360.3,11.9,361.6z"/>
            <path id="path2848" d="M8.7,368.7c0,1.3-1,2.3-2.3,2.3c-1.3,0-2.3-1-2.3-2.3c0-1.3,1-2.3,2.3-2.3C7.7,366.4,8.7,367.4,8.7,368.7z
                "/>
            <path id="path2850" d="M7,376.2c0,1.3-1,2.3-2.3,2.3c-1.3,0-2.3-1-2.3-2.3s1-2.3,2.3-2.3C6,373.9,7,375,7,376.2z"/>
            <path id="path2852" d="M6.4,383.9c0,1.3-1,2.3-2.3,2.3c-1.3,0-2.3-1-2.3-2.3s1-2.3,2.3-2.3C5.4,381.6,6.4,382.6,6.4,383.9z"/>
            <path id="path2854" d="M7.7,391.8c0,1.3-1,2.3-2.3,2.3c-1.3,0-2.3-1-2.3-2.3s1-2.3,2.3-2.3C6.7,389.5,7.7,390.5,7.7,391.8z"/>
            <path id="path2856" d="M10.2,399.1c0,1.3-1,2.3-2.3,2.3s-2.3-1-2.3-2.3c0-1.3,1-2.3,2.3-2.3S10.2,397.8,10.2,399.1z"/>
            <path id="path2858" d="M14.4,406.3c0,1.3-1,2.3-2.3,2.3s-2.3-1-2.3-2.3c0-1.3,1-2.3,2.3-2.3S14.4,405.1,14.4,406.3z"/>
            <path id="path2860" d="M20.6,412.8c0,1.3-1,2.3-2.3,2.3c-1.3,0-2.3-1-2.3-2.3c0-1.3,1-2.3,2.3-2.3
                C19.5,410.5,20.6,411.5,20.6,412.8z"/>
            <path id="path2862" d="M27.5,417.7c0,1.3-1,2.3-2.3,2.3s-2.3-1-2.3-2.3c0-1.3,1-2.3,2.3-2.3S27.5,416.5,27.5,417.7z"/>
            <path id="path2864" d="M36.6,421.2c0,1.3-1,2.3-2.3,2.3s-2.3-1-2.3-2.3s1-2.3,2.3-2.3S36.6,420,36.6,421.2z"/>
            <path id="path2866" d="M47,422.1c0,1.3-1,2.3-2.3,2.3c-1.3,0-2.3-1-2.3-2.3s1-2.3,2.3-2.3C46,419.8,47,420.8,47,422.1z"/>
            <path id="path2868" d="M56.1,421.6c0,1.3-1,2.3-2.3,2.3c-1.3,0-2.3-1-2.3-2.3s1-2.3,2.3-2.3C55.1,419.3,56.1,420.3,56.1,421.6z"
                />
            <path id="path2870" d="M65.6,418.4c0,1.3-1,2.3-2.3,2.3s-2.3-1-2.3-2.3s1-2.3,2.3-2.3S65.6,417.2,65.6,418.4z"/>
            <path id="path2872" d="M73.5,413.2c0,1.3-1,2.3-2.3,2.3c-1.3,0-2.3-1-2.3-2.3s1-2.3,2.3-2.3C72.5,410.9,73.5,411.9,73.5,413.2z"
                />
            <path id="path2874" d="M79.5,406.9c0,1.3-1,2.3-2.3,2.3s-2.3-1-2.3-2.3s1-2.3,2.3-2.3S79.5,405.6,79.5,406.9z"/>
            <path id="path2876" d="M83.9,399.9c0,1.3-1,2.3-2.3,2.3c-1.3,0-2.3-1-2.3-2.3s1-2.3,2.3-2.3C82.8,397.6,83.9,398.7,83.9,399.9z"
                />
            <path id="path2878" d="M86.6,392.3c0,1.3-1,2.3-2.3,2.3c-1.3,0-2.3-1-2.3-2.3c0-1.3,1-2.3,2.3-2.3C85.6,390,86.6,391,86.6,392.3z
                "/>
            <path id="path2880" d="M88,384.6c0,1.3-1,2.3-2.3,2.3s-2.3-1-2.3-2.3s1-2.3,2.3-2.3S88,383.3,88,384.6z"/>
            <path id="path2882" d="M87.8,376.7c0,1.3-1,2.3-2.3,2.3s-2.3-1-2.3-2.3c0-1.3,1-2.3,2.3-2.3S87.8,375.4,87.8,376.7z"/>
            <path id="path2884" d="M85.9,368.7c0,1.3-1,2.3-2.3,2.3c-1.3,0-2.3-1-2.3-2.3c0-1.3,1-2.3,2.3-2.3
                C84.9,366.4,85.9,367.4,85.9,368.7z"/>
            <path id="path2886" d="M82.9,362c0,1.3-1,2.3-2.3,2.3s-2.3-1-2.3-2.3c0-1.3,1-2.3,2.3-2.3S82.9,360.7,82.9,362z"/>
            <path id="path2888" d="M78.2,355.4c0,1.3-1,2.3-2.3,2.3s-2.3-1-2.3-2.3s1-2.3,2.3-2.3S78.2,354.2,78.2,355.4z"/>
            <path id="path2890" d="M72.9,350.2c0,1.3-1,2.3-2.3,2.3c-1.3,0-2.3-1-2.3-2.3c0-1.3,1-2.3,2.3-2.3
                C71.9,347.9,72.9,349,72.9,350.2z"/>
            <path id="path2892" d="M66.3,346c0,1.3-1,2.3-2.3,2.3c-1.3,0-2.3-1-2.3-2.3c0-1.3,1-2.3,2.3-2.3C65.3,343.7,66.3,344.7,66.3,346z
                "/>
            <path id="path2894" d="M59.2,343.1c0,1.3-1,2.3-2.3,2.3c-1.3,0-2.3-1-2.3-2.3s1-2.3,2.3-2.3C58.2,340.8,59.2,341.8,59.2,343.1z"
                />
            <path id="path2896" d="M52,341.6c0,1.3-1,2.3-2.3,2.3s-2.3-1-2.3-2.3c0-1.3,1-2.3,2.3-2.3S52,340.3,52,341.6z"/>
            <path id="path2898" fill="none" stroke="#FFFFFF" stroke-width="0.9" d="M77.5,381.5c0,18.3-14.9,33.2-33.2,33.2
                c-18.3,0-33.2-14.9-33.2-33.2s14.9-33.2,33.2-33.2C62.7,348.3,77.5,363.2,77.5,381.5z"/>
            <path id="path2900" fill="none" stroke="#FFFFFF" stroke-width="2.8275" d="M82.9,381.8c0,21-17,38.1-38.1,38.1
                s-38.1-17-38.1-38.1s17-38.1,38.1-38.1S82.9,360.7,82.9,381.8L82.9,381.8z"/>
            <path id="path2902" fill="none" stroke="#FFFFFF" stroke-width="0.3055" d="M32.3,350.6l-3.4-2.9l0.3,4.5l-3.3-2.7l0.3,4.3
                L23,351l0.6,4.3l-3.3-1.9l1.1,3.8l-4.2-1.1l1.8,3.5l-3.9-0.8l2,3.5l-4.3-0.6l2.6,3.4h-4.1l2.7,2.3l-4,0.7l2.7,2.3l-4.1,1.3l3,2.4l-3.5,1.8l3.2,1.6l-4.1,2.2l3.2,0.6L7,383.1l3.7,0.5l-3.4,3.2l4.1,0.2L8,390.2l4.1-0.1l-3.2,3.1l4.5,0.1l-3,3.1l4.1-0.5l-2.8,4.1l4.5-1.4l-2.6,4.7l4.3-1.9l-1.6,5.5l4.3-2.5l-1.3,5.6l4.5-2.8l-0.8,5.5l3.9-3.1l-0.3,5.8l3.9-3.9l0.7,5.6l3.6-4l1,5.6l3.1-4.5
                l1.6,5.3l2.3-5l2.5,5.3l1.6-5.2l2.6,4.9l1.4-5.5l3.3,4.6L55,413l3.7,4.2l0.2-5.6l4,3.8l-0.3-6l4.2,3.4l-0.9-5.5l3.9,3l-1.1-5.8
                l4.5,2.2l-1.6-5.6l4.6,1.8l-2.4-5l4.8,1.5l-3.3-5l5.1,0.5l-3.7-3.9l4.5-0.2l-3.8-3.4l4.8-1.3l-4.3-2.9l4.6-1.2l-4.2-2.2l4.2-1.2
                l-4.7-1.6l4.2-2.6l-5.1-0.4l3.9-2.9h-4.2l4.2-2.9l-5.3,0.2l3.4-3.7l-5,1.2l3.4-3.8l-4.8,0.5l2.2-4.4l-4.6,1.8l1.8-5l-4,2.4
                l1.1-5.1l-4,3l0.3-5.6l-3.4,3.4l-0.6-5.6l-3.9,3.1l-0.8-5l-3,3.8l-0.6-4.7l-2.8,4.2l-1.5-4.7l-1.7,4.1l-2.1-4.6l-1.4,4.6l-2.8-4
                l-0.4,4.3l-3.6-3.6l-0.2,4.5l-3.3-3.3L32.3,350.6L32.3,350.6L32.3,350.6z"/>
            <path id="path2904" stroke="#FFFFFF" stroke-width="0.9" d="M47.4,380.7c0,1.4-1.1,2.6-2.6,2.6s-2.6-1.1-2.6-2.6
                c0-1.4,1.1-2.6,2.6-2.6S47.4,379.3,47.4,380.7z"/>
        </g>
        <path id="path2906" stroke="#FFFFFF" stroke-width="0.3486" d="M43.7,382.9l0.8,0c0,0-1.2,11.5-4.7,44l-4.2-0.1"/>
        <path id="path2908" stroke="#FFFFFF" stroke-width="0.3527" d="M45.4,382.8l-0.8,0c0,0,1.7,13.8,5.3,44.1l3.8-0.2"/>
    </g>
    <g id="svg_62">
        <g id="svg_4">
            <path id="svg_5" stroke="#FFFFFF" stroke-width="0.1233" d="M268,419.1v-39.6h0.7v-9.7h-1.3v-1.6h-0.6l-1.8-3.3v-3l-2-6.9l0-1.3
                v1.3l-2.1,6.9v3l-1.8,3.3h-0.6v1.6h-1.3v9.7h0.7v39.6L268,419.1L268,419.1z"/>
            <path id="svg_6" fill="#FFFFFF" d="M265.7,374.4c0,1.9-1.4,3.4-3.1,3.4s-3.1-1.5-3.1-3.4c0-1.9,1.4-3.4,3.1-3.4
                S265.7,372.5,265.7,374.4z"/>
        </g>
        <path id="svg_7" d="M246.6,401.2l16.7-0.1v17.9l-16.7,0.1L246.6,401.2L246.6,401.2z"/>
        <path id="svg_8" d="M141.5,365.2l-2.4,3.6L139,357l-1.5-2.3l-1.9,2.2l0,54.6l19.5-7v7l0-54.4l-1.6-2.7l-1.9,2.5v11.8l-2.3-3.6
            l-2.1,0l0-3.4l-1.9-3l-1.8,3l0,3.2L141.5,365.2L141.5,365.2z"/>
        <path id="svg_9" stroke="#FFFFFF" stroke-width="1.812300e-02" d="M191.8,405.6V390l-1.9-5.4v-4.4c0,0-3.3-7.9-3.4-13.4
            c-0.1-0.2-0.1-0.2-0.1,0c-0.1,5.5-3.4,13.4-3.4,13.4v4.4l-1.9,4.3v16.7"/>
        <path id="svg_10" stroke="#FFFFFF" stroke-width="0.2058" d="M175.7,423.9h-11.2v-35.2l1.5-3.3l1.1,3.2l0,3.3h6.1v-3.6l1.2-2.9
            l1.2,3L175.7,423.9L175.7,423.9z"/>
        <path id="svg_11" stroke="#FFFFFF" stroke-width="0.2058" d="M215.3,423.9h-11.2v-35.2l1.5-3.3l1.1,3.2l0,3.3h6.1v-3.6l1.2-2.9
            l1.2,3L215.3,423.9z"/>
        <g id="svg_18">
            <path id="svg_19" stroke="#FFFFFF" d="M251.4,423.9h-9.3v-35.2l1.2-3.3l0.9,3.2l0,3.3h5.1v-3.6l1-2.9l1,3L251.4,423.9
                L251.4,423.9z"/>
            <path id="svg_20" stroke="#FFFFFF" d="M236.2,423.9h-9.3v-35.2l1.2-3.3l0.9,3.2l0,3.3h5.1v-3.6l1-2.9l1,3L236.2,423.9
                L236.2,423.9z"/>
            <path id="svg_21" stroke="#FFFFFF" stroke-width="0.2345" d="M237.7,398l0,0.3c0.2,0.2,0.3,0.6,0.3,0.6l0,2.8l-0.6,0l0-2.8
                c0,0,0-0.5,0.3-0.6L237.7,398L237.7,398z"/>
            <path id="svg_22" stroke="#FFFFFF" stroke-width="1.8359" d="M230.7,401.8h17.1l-0.4,22l-16.9,0L230.7,401.8L230.7,401.8z"/>
            <path id="svg_23" stroke="#FFFFFF" stroke-width="0.2345" d="M240.9,398l0,0.3c0.2,0.2,0.3,0.6,0.3,0.6l0,2.8l-0.6,0l0-2.8
                c0,0,0-0.5,0.3-0.6L240.9,398L240.9,398L240.9,398z"/>
        </g>
        <g id="svg_37">
            <path id="svg_38" stroke="#FFFFFF" stroke-width="0.236" d="M151.7,400.9l0.1,0.3c0.5,0.2,0.5,0.6,0.5,0.6l0,2.8l-1.1,0l0-2.8
                c0,0,0-0.5,0.5-0.6L151.7,400.9L151.7,400.9L151.7,400.9z"/>
            <path id="svg_39" stroke="#FFFFFF" stroke-width="0.236" d="M158.2,400.9l0.1,0.3c0.5,0.2,0.5,0.6,0.5,0.6l0,2.8l-1.1,0l0-2.8c0,0,0-0.5,0.5-0.6L158.2,400.9L158.2,400.9L158.2,400.9z"/>
            <path id="svg_40" stroke="#FFFFFF" stroke-width="0.236" d="M164.8,400.9l0.1,0.3c0.5,0.2,0.5,0.6,0.5,0.6l0,2.8l-1.1,0l0-2.8c0,0,0-0.5,0.5-0.6L164.8,400.9L164.8,400.9L164.8,400.9z"/>
            <path id="svg_41" stroke="#FFFFFF" stroke-width="0.236" d="M171.3,400.9l0.1,0.3c0.5,0.2,0.5,0.6,0.5,0.6l0,2.8l-1.1,0l0-2.8c0,0,0-0.5,0.5-0.6L171.3,400.9L171.3,400.9L171.3,400.9z"/>
            <path id="svg_42" stroke="#FFFFFF" stroke-width="0.236" d="M178,401l0.1,0.3c0.5,0.2,0.5,0.6,0.5,0.6l0,2.8l-1.1,0l0-2.8c0,0,0-0.5,0.5-0.6L178,401L178,401L178,401z"/>
            <path id="svg_43" stroke="#FFFFFF" stroke-width="0.236" d="M184.5,401l0.1,0.3c0.5,0.2,0.5,0.6,0.5,0.6l0,2.8l-1.1,0l0-2.8c0,0,0-0.5,0.5-0.6L184.5,401L184.5,401L184.5,401z"/>
            <path id="svg_44" stroke="#FFFFFF" stroke-width="0.236" d="M191.1,401l0.1,0.3c0.5,0.2,0.5,0.6,0.5,0.6l0,2.8l-1.1,0l0-2.8c0,0,0-0.5,0.5-0.6L191.1,401L191.1,401L191.1,401z"/>
            <path id="svg_45" stroke="#FFFFFF" stroke-width="0.236" d="M197.6,401l0.1,0.3c0.5,0.2,0.5,0.6,0.5,0.6l0,2.8l-1.1,0l0-2.8c0,0,0-0.5,0.5-0.6L197.6,401L197.6,401L197.6,401z"/>
            <path id="svg_46" stroke="#FFFFFF" stroke-width="0.236" d="M204.5,400.8l0.1,0.3c0.5,0.2,0.5,0.6,0.5,0.6l0,2.8l-1.1,0l0-2.8c0,0,0-0.5,0.5-0.6L204.5,400.8L204.5,400.8L204.5,400.8z"/>
            <path id="svg_47" stroke="#FFFFFF" stroke-width="0.236" d="M211.2,400.8l0.1,0.3c0.5,0.2,0.5,0.6,0.5,0.6l0,2.8l-1.1,0l0-2.8c0,0,0-0.5,0.5-0.6L211.2,400.8L211.2,400.8L211.2,400.8z"/>
            <path id="svg_48" stroke="#FFFFFF" stroke-width="0.236" d="M217.7,400.8l0.1,0.3c0.5,0.2,0.5,0.6,0.5,0.6l0,2.8l-1.1,0l0-2.8c0,0,0-0.5,0.5-0.6L217.7,400.8L217.7,400.8L217.7,400.8z"/>
            <path id="svg_49" stroke="#FFFFFF" stroke-width="1.1399" d="M135.9,404.5h97.3v19.3h-97.7L135.9,404.5z"/>
        </g>
    </g>
</g>
<g>
    <title>Layer 2</title>
</g>
</svg>
